<svg id="Layer_1" data-name="Layer 1" xmlns="http://www.w3.org/2000/svg" viewBox="0 0 217.22 217.22"><defs><style>.cls-1,.cls-6,.cls-9{fill:#d2d5d6;}.cls-1,.cls-3,.cls-4,.cls-5,.cls-6,.cls-7,.cls-8{stroke:#000;}.cls-1,.cls-10,.cls-3,.cls-4,.cls-5,.cls-6,.cls-7,.cls-8{stroke-linecap:round;}.cls-1,.cls-10,.cls-4,.cls-5,.cls-6,.cls-7,.cls-8{stroke-linejoin:round;}.cls-1,.cls-10,.cls-3,.cls-4,.cls-5{stroke-width:4px;}.cls-2,.cls-5{fill:#fff;}.cls-3{fill:#fbed1d;stroke-miterlimit:10;}.cls-10,.cls-4,.cls-8{fill:none;}.cls-6,.cls-7,.cls-8{stroke-width:3px;}.cls-7{fill:#808083;}.cls-10{stroke:#231f20;}.cls-11{fill:#231f20;}</style></defs><title>design-thinking-quick-start</title><polygon class="cls-1" points="160.33 156.11 140.35 156.11 144.02 140.74 156.66 140.74 160.33 156.11"/><rect class="cls-1" x="103.14" y="85.93" width="94.41" height="57.43"/><rect class="cls-2" x="118.76" y="95.77" width="30.58" height="37.74"/><circle cx="134.05" cy="106.97" r="5.62"/><line class="cls-3" x1="127.26" y1="118" x2="140.84" y2="118"/><line class="cls-3" x1="127.26" y1="124.54" x2="140.84" y2="124.54"/><line class="cls-3" x1="157.37" y1="101.56" x2="170.95" y2="101.56"/><line class="cls-3" x1="157.37" y1="108.1" x2="180.89" y2="108.1"/><line class="cls-3" x1="157.37" y1="114.64" x2="176.36" y2="114.64"/><line class="cls-3" x1="157.37" y1="121.18" x2="179.01" y2="121.18"/><line class="cls-3" x1="157.37" y1="127.73" x2="170.95" y2="127.73"/><line class="cls-4" x1="127.02" y1="156.11" x2="173.67" y2="156.11"/><rect class="cls-5" x="19.67" y="36.83" width="58.36" height="70.35" transform="translate(97.71 144) rotate(-180)"/><rect class="cls-6" x="28.74" y="47.44" width="40.24" height="21.53" transform="translate(97.71 116.41) rotate(-180)"/><line class="cls-7" x1="68.29" y1="48.44" x2="28.74" y2="68.97"/><line class="cls-7" x1="28.74" y1="47.44" x2="68.97" y2="68.97"/><rect class="cls-6" x="47.58" y="77.72" width="21.4" height="16.49" transform="translate(116.55 171.93) rotate(-180)"/><line class="cls-8" x1="68.61" y1="78.49" x2="47.58" y2="94.21"/><line class="cls-8" x1="47.58" y1="77.72" x2="68.97" y2="94.21"/><line class="cls-3" x1="36.83" y1="78.88" x2="28.74" y2="78.88"/><line class="cls-3" x1="41.13" y1="85.1" x2="28.74" y2="85.1"/><line class="cls-3" x1="35.11" y1="91.33" x2="28.74" y2="91.33"/><circle class="cls-9" cx="68.12" cy="144.69" r="10.3"/><circle class="cls-10" cx="68.12" cy="144.69" r="10.3"/><circle class="cls-11" cx="68.12" cy="144.69" r="3.9"/><path class="cls-10" d="M89,150.91l.9-6.17-3.9-.57a17.85,17.85,0,0,0-1.89-7.5l3.17-2.36-3.73-5-3.17,2.35a17.7,17.7,0,0,0-6.63-4l.57-3.91-6.17-.91-.58,3.91a17.7,17.7,0,0,0-7.49,1.89l-2.36-3.17-5,3.73,2.35,3.16a17.66,17.66,0,0,0-4,6.64l-3.91-.57-.91,6.17,3.91.57a17.74,17.74,0,0,0,1.89,7.5l-3.17,2.36,3.73,5,3.16-2.35a17.92,17.92,0,0,0,6.64,4l-.57,3.91,6.17.9.57-3.9a17.89,17.89,0,0,0,7.5-1.89l2.35,3.17,5-3.73L81.14,157a17.77,17.77,0,0,0,4-6.63Z"/><polyline class="cls-10" points="145.61 58.41 139.99 71.41 131.55 60.04"/><path class="cls-10" d="M95.39,45.41a27,27,0,0,1,43.88,23.85"/><polyline class="cls-10" points="20.66 143.43 32.32 130.45 37.73 147.04"/><path class="cls-10" d="M74.24,178.31a33.31,33.31,0,0,1-41.92-45.06"/></svg>