<svg id="Layer_1" data-name="Layer 1" xmlns="http://www.w3.org/2000/svg" xmlns:xlink="http://www.w3.org/1999/xlink" viewBox="0 0 217.22 217.22"><defs><style>.cls-1{fill:#fff;}.cls-2{clip-path:url(#clip-path);}.cls-3{fill:#d2d5d6;}.cls-4{fill:#676767;}.cls-5{fill:#231f20;}.cls-6{fill:#f2f2f2;}</style><clipPath id="clip-path"><circle class="cls-1" cx="103.87" cy="116.66" r="79.8"/></clipPath></defs><title>design-thinking-quick-start</title><circle class="cls-1" cx="103.87" cy="116.66" r="79.8"/><g class="cls-2"><path class="cls-1" d="M126.8,97.43l3.7-4.62s1.24-4,3.26-6.11c2.28-2.38,5.36-1.87,5.83-1.42A6.16,6.16,0,0,1,140,91c-.76,1.85-4.16,4.84-5.71,5.44l-3.7,5.17Z"/><path d="M130.71,104.58l-6.4-7.08,4.5-5.61a19.22,19.22,0,0,1,3.58-6.5A7.59,7.59,0,0,1,137.77,83a4.69,4.69,0,0,1,3.13.9c1,.94,2.25,4.28.8,7.77-.88,2.13-4.08,5.11-6.21,6.23Zm-1.42-7.23,1.08,1.2L133,94.84l.53-.21a13.22,13.22,0,0,0,4.65-4.4,4.74,4.74,0,0,0,.09-3.41,3.76,3.76,0,0,0-3.16,1.2,16.1,16.1,0,0,0-2.82,5.35l-.1.34Zm9.32-10.47Z"/><path class="cls-3" d="M72.48,113.93s4.53-.55,9.88-.69S108.14,115,108.14,115L127.57,96.4l3.8,3.68s-11.93,23.5-19.08,28.1c-5.46,3.5-30.8,4.76-30.8,4.76Z"/><path d="M80.32,134.89,69.64,112.36l2.61-.31c.19,0,4.69-.57,10.06-.71,4.83-.11,21.15,1.34,25.15,1.71l20.11-19.28,6.12,5.92-.63,1.25c-.5,1-12.25,24-19.75,28.83-5.71,3.67-29.08,4.93-31.72,5.06Zm-5-19.35L82.66,131c10-.56,25.07-2.12,28.61-4.4,5.18-3.33,14-19,17.77-26.11L127.56,99l-18.73,18-.86-.08c-.21,0-20.39-1.91-25.56-1.77C79.67,115.2,77.13,115.39,75.34,115.54Z"/><path class="cls-3" d="M75.09,113.55S62.46,112.36,57,112.17s-26.17,1-31.36,2.77c-2.79,1-8.21,19.08-3.81,33.92a186.77,186.77,0,0,1,5.29,24.55l50.46,2.51s4.91-51.89,4-57S75.09,113.55,75.09,113.55Z"/><path d="M79.33,177.91l-53.84-2.69-.21-1.56a184.24,184.24,0,0,0-5.23-24.26c-4.53-15.28.63-34.75,5-36.26,5.72-2,27-3.06,32-2.87,5.29.19,17.1,1.3,18.1,1.39,2.5.11,7.37,1.68,8.29,6.9s-3.49,52.21-4,57.54Zm-50.52-6.32,47.09,2.35c1.95-20.77,4.47-51.24,3.86-54.72s-4.33-3.75-4.75-3.77h-.1c-.13,0-12.64-1.19-17.94-1.38s-25.41,1-30.54,2.62c-2.1,1.9-6.77,18.06-2.75,31.65A190.06,190.06,0,0,1,28.81,171.59Zm-2.32-55"/><path class="cls-1" d="M50.68,163.28l6.84.29a26.61,26.61,0,0,0,6,1.52c3,.27,4.59-1.52,4.59-2.62s-1.07-2.69-3.49-3.89c-1.55-.76-4.59-.13-6.11.38A1.78,1.78,0,0,1,58,159l-5.14-1.39Z"/><path d="M64.09,167c-.24,0-.5,0-.76,0a27.19,27.19,0,0,1-6.19-1.53l-9.19-.4,3.81-9.67,6.34,1.71c1-.32,4.92-1.4,7.34-.21,2.76,1.36,4.54,3.56,4.54,5.59a4.09,4.09,0,0,1-1.44,2.94A6.48,6.48,0,0,1,64.09,167ZM53.42,161.5l4.49.19.29.11a24.71,24.71,0,0,0,5.46,1.41,2.69,2.69,0,0,0,2.51-.81,4.84,4.84,0,0,0-2.41-2.12c-.69-.34-2.92-.11-4.67.47a3,3,0,0,1-1,.18H57.8l-3.76-1Zm12.79.82Z"/><path class="cls-1" d="M60.91,102.1c4.89,1.52,9.26,1,10.45-.33,1.36-1.52,4.48-8.59,1.14-19.38C69.76,73.53,56,74.6,56,74.6s-5.29.59-5.74,2.38-4.15,33.07-4.15,33.07l-.92,3.45,15.67,4L64,112.64l-4-1.58Z"/><path d="M61.71,119.67l-18.86-4.81,1.38-5.17c.66-5.54,3.72-31.38,4.18-33.18.67-2.66,4.91-3.52,7.37-3.8.69,0,15.38-1.07,18.53,9.12,3.66,11.83,0,19.46-1.54,21.2s-5.75,2.38-10.21,1.45L62,109.82l4.86,1.9ZM47.5,112.13,60,115.32l1.13-1.76-3.24-1.26,1.39-12.69,2.2.68c4.54,1.41,8,.71,8.48.2.9-1,3.9-7.31.73-17.54-2.26-7.3-14.43-6.47-14.55-6.46a11.42,11.42,0,0,0-4.09,1.14c-.44,2.44-2.65,20.62-4.07,32.65l0,.26Z"/><path class="cls-3" d="M29.74,114.67s-5.41-.69-10.32,4.45a10.54,10.54,0,0,0-2.67,6.5c-.62,6.72-2.09,30.79,3.86,35.74C25,165,52.47,163,52.47,163l1.19-5.19-22-5.79s2.54-19.07,2.13-25.42C33.18,117.64,29.74,114.67,29.74,114.67Z"/><path d="M37.71,165.49c-7.66,0-15.75-.55-18.31-2.67-7.08-5.88-5-32.17-4.53-37.38A12.38,12.38,0,0,1,18,117.82c5.51-5.78,11.68-5.06,11.94-5l.57.07.43.37c.42.36,4.06,3.77,4.68,13.28.35,5.42-1.32,19.31-1.93,24.14l22.18,5.84L54,164.83l-1.4.1C50.44,165.09,44.23,165.49,37.71,165.49Zm-8.85-49a11.66,11.66,0,0,0-8.07,3.9,8.73,8.73,0,0,0-2.15,5.37c-2,21.42.81,32.13,3.19,34.1s16.33,2.17,29.11,1.35l.46-2-21.86-5.75.22-1.66c0-.19,2.51-19,2.12-25S29.67,117.59,28.86,116.53Z"/><path d="M63.21,77.4s9.28,2.68,11.65-.84.59-8.1-4.35-7.48-5.2-3.12-8.62-3.33-3.24-.62-7.47,1-7.15.41-9.44.41-8.66,5.81-5.6,10c2,2.71-1.59,5.82.19,7.26,2.33,1.88-2.18,6.15,2.94,7.4,2.44.59,1.09,5.31,3.43,4.78,1.64-.37,8.42-5.92,6.35-9.37C48.22,80.51,55,81.88,55,81.88l2.19,5.48,1.09-.14-.75-6.94S59.28,76.62,63.21,77.4Z"/><path class="cls-1" d="M152.39,112.25a8.74,8.74,0,0,0-8.45,6.3c-2.28,6.66-2.5,7.41-2.64,9.52S140,138,150.73,135.2l-2.11,16,19.81-1.62S164,115,152.39,112.25Z"/><path d="M146.43,153.27l2.07-15.71c-2.93.36-5.22-.13-6.81-1.48-2.75-2.31-2.44-6.19-2.31-7.84l0-.3c.16-2.39.46-3.34,2.73-10a10.65,10.65,0,0,1,10.36-7.58l.33,0c12.53,3,17,35.26,17.48,38.92l.25,2ZM153,132.66l-2.17,16.45,15.48-1.26c-1.9-12.82-7.08-31.71-14.15-33.7a6.76,6.76,0,0,0-6.4,5c-2.25,6.59-2.42,7.18-2.54,9l0,.34c-.09,1.17-.29,3.59,1,4.64,1.05.89,3.16.95,6.12.19Z"/><path class="cls-3" d="M136.31,192.3l39.31.45s5.91-28-1.3-49.08c-.68-2-3.87-4.07-7.56-3.62s-16.81.74-20.28,4.24c-16.69,16.84-9.27,23.47-8.74,36.11C137.86,183.24,137.58,186.39,136.31,192.3Z"/><path d="M177.16,194.66,134,194.17l.49-2.26c1.29-6,1.49-8.95,1.38-11.43a50.46,50.46,0,0,0-1.08-7.88c-1.59-8.27-3.08-16.07,10.37-29.64,3.08-3.11,10.91-4,18.66-4.56,1.14-.08,2.09-.16,2.74-.23,4.69-.57,8.62,2.1,9.58,4.89,7.3,21.33,1.61,48.92,1.37,50.08Zm-38.53-4.23,35.43.41c1.07-6.06,4.48-29-1.54-46.56-.33-1-2.59-2.7-5.54-2.35-.68.08-1.69.16-2.89.25-4.17.33-13.92,1.08-16.27,3.45-12,12.15-10.85,18.37-9.34,26.25a55.53,55.53,0,0,1,1.15,8.44A42.47,42.47,0,0,1,138.63,190.43Z"/><path class="cls-1" d="M144.89,151.32c-4,2.66-12,6.42-19.87,4.58-.33-3.28,1.34-10.42,4.57-13.18a1.77,1.77,0,0,1,.6-.42c1.19-.37,4.4-1,6.18-3,1.33-1.5,1.75-3.86,1.33-4.69-.59-1.18-2.73-1.23-6.64.47-5.29,2.28-15.83,15-15.93,24.5,0,4.12,3.48,5.74,8,7,9.15,2.45,33.3.72,40-7.68C167.24,153.73,162.22,139.66,144.89,151.32Z"/><path d="M133.28,169.44a43.5,43.5,0,0,1-10.63-1.09c-3.07-.82-9.48-2.54-9.41-8.8.11-10.36,11.37-23.76,17.07-26.22,4.84-2.1,7.89-2,9.09.43.85,1.7.09,4.87-1.62,6.79-1.91,2.15-4.91,3-6.52,3.41l-.31.09-.13.11c-2.22,1.9-3.75,6.91-3.93,10.16,6.16.86,12.69-1.71,17-4.58h0c12.09-8.13,18-4,20-1.84,3,3.3,3.41,8.85.8,12.12C159.31,166.69,144.62,169.44,133.28,169.44Zm2.57-33.79a11,11,0,0,0-4,1.15c-4.68,2-14.69,14.12-14.78,22.79,0,2.45,1.7,3.79,6.6,5.1,4.47,1.19,12.75,1.27,20.16.18,8.72-1.28,15.24-3.91,17.89-7.22,1.31-1.64,1.32-5.06-.63-7.18-2.8-3-8.3-2.16-15.1,2.42h0c-2.55,1.71-11.62,7.13-21.36,4.85l-1.32-.31-.14-1.35c-.38-3.88,1.46-11.58,5.23-14.8l.08-.07a3.09,3.09,0,0,1,1.19-.72l.63-.18c1.23-.34,3.52-1,4.69-2.28a4.55,4.55,0,0,0,1-2.38Z"/><path class="cls-3" d="M150.76,168l-9-17.48s17.28-8.46,21.67,0C165.73,155,164.88,160.67,150.76,168Z"/><path d="M150,170.58,139.2,149.69l1.74-.85c.77-.38,19-9.17,24.18.85,3.57,6.88-.84,13.43-13.49,20Zm-5.57-19.11,7.18,14c13.57-7.51,11.14-12.2,10.2-14C159,146.13,148.59,149.74,144.38,151.47Z"/><path class="cls-1" d="M27.16,173.41l50.46,2.51s2.17,16,0,24.6-50.46-11-50.46-11Z"/><path d="M72.62,204.63c-3.88,0-11-1.09-24.54-5.46-11.2-3.62-21.53-7.81-21.63-7.85l-1.18-.48V171.42l54,2.69.21,1.56c.09.66,2.2,16.42,0,25.32a4.25,4.25,0,0,1-2.3,2.77A9,9,0,0,1,72.62,204.63ZM29.06,188.28c28.5,11.47,43.56,13.53,46.37,12.1.31-.16.34-.27.35-.32,1.67-6.66.61-18.16.15-22.32L29.06,175.4Z"/></g><path class="cls-4" d="M141.91,108.83a7.69,7.69,0,0,0,7.15,8.18,4.57,4.57,0,0,0,2.22-.17s.67,3.94,2.15,4.81c0,0,3.3-2,5.22-.05s-2.46,6-2.46,6a27.7,27.7,0,0,1,.73,4.32,7,7,0,0,0,5.79,7.39,7,7,0,0,0,2.9,3.73,5.32,5.32,0,0,0-.21,1.15,5.26,5.26,0,0,0,3.69,5.38,7,7,0,0,0,13,.79,5.36,5.36,0,0,0,1.5.33,5.27,5.27,0,0,0,5.61-4.89,5.4,5.4,0,0,0-.28-2.1,7.69,7.69,0,0,0,1.55-12.75A7.67,7.67,0,0,0,186.85,120c0-4-3.87-7.66-9-7.34-1.07-4.81-5.39-7.37-10.37-6.36-3.08-5-9.45-5.71-12.9-2.76a7.68,7.68,0,0,0-12.71,5.28Z"/><path d="M175.75,156.18l-.62,0a8.92,8.92,0,0,1-7.49-5.15,7.13,7.13,0,0,1-4.13-7,1.49,1.49,0,0,1,0-.21,8.83,8.83,0,0,1-2.21-2.93,8.88,8.88,0,0,1-6.29-9.13,27.68,27.68,0,0,0-.69-3.76l-.25-1.07.81-.76a8.2,8.2,0,0,0,2.34-3.29c-.76-.62-2.52.2-2.84.39l-1,.58-1-.57c-1.39-.82-2.2-2.74-2.64-4.32l-.69,0-.2,0A9.56,9.56,0,0,1,140,108.7h0a9.59,9.59,0,0,1,10.2-8.91,9.38,9.38,0,0,1,4.42,1.42,10.05,10.05,0,0,1,6.64-1.16,11.27,11.27,0,0,1,7.12,4.21,10.16,10.16,0,0,1,10.91,6.52,10.72,10.72,0,0,1,6.56,2.81,9.06,9.06,0,0,1,2.79,5.22,9.57,9.57,0,0,1,4.06,11.72,9.48,9.48,0,0,1,2.31,6.9,9.62,9.62,0,0,1-4,7.16,7.06,7.06,0,0,1,0,1.3,7.17,7.17,0,0,1-7.62,6.66l-.48-.05A8.86,8.86,0,0,1,175.75,156.18Zm-17.48-28a19.58,19.58,0,0,1,.55,3.85,5.09,5.09,0,0,0,4.22,5.39l1.12.2.35,1.08a5.12,5.12,0,0,0,2.12,2.72l1.23.79-.44,1.39a3,3,0,0,0-.13.7,3.35,3.35,0,0,0,2.36,3.44l.92.28.31.91a5.12,5.12,0,0,0,9.46.58l.76-1.54,1.61.6a3.75,3.75,0,0,0,1,.21,3.37,3.37,0,0,0,3.59-3.13,3.45,3.45,0,0,0-.18-1.35l-.55-1.58L188,142a5.78,5.78,0,0,0,1.16-9.6l-1.21-1,.81-1.37a5.72,5.72,0,0,0,.77-2.5,5.81,5.81,0,0,0-3.47-5.71l-1.15-.5V120a5.07,5.07,0,0,0-1.68-3.65,7,7,0,0,0-5.26-1.79l-1.62.1-.35-1.58c-.83-3.76-4.1-5.73-8.14-4.91l-1.29.26-.7-1.12a7.56,7.56,0,0,0-5.22-3.52,6.1,6.1,0,0,0-4.84,1.2l-1.24,1.06L153.38,105a5.68,5.68,0,0,0-3.41-1.41A5.79,5.79,0,0,0,143.8,109h0a5.8,5.8,0,0,0,5.38,6.16l.21,0a2.58,2.58,0,0,0,1.31-.1l2.09-.67.36,2.15a12.36,12.36,0,0,0,.83,2.8,5.61,5.61,0,0,1,6,.94,3.53,3.53,0,0,1,1,2.63C161,124.92,159.34,127,158.27,128.17Z"/><path class="cls-5" d="M111.41,32.46a1.89,1.89,0,0,1-1.89-1.89V20.76a1.9,1.9,0,1,1,3.79,0v9.81A1.9,1.9,0,0,1,111.41,32.46Z"/><path class="cls-5" d="M98.94,35.81a1.91,1.91,0,0,1-1.65-1l-4.9-8.5a1.89,1.89,0,0,1,3.28-1.89L100.58,33a1.9,1.9,0,0,1-.7,2.59A1.88,1.88,0,0,1,98.94,35.81Z"/><path class="cls-5" d="M89.8,44.94a1.84,1.84,0,0,1-1-.26l-8.49-4.9a1.9,1.9,0,0,1,1.9-3.28l8.49,4.9a1.9,1.9,0,0,1-1,3.54Z"/><path class="cls-5" d="M86.46,57.42H76.65a1.9,1.9,0,0,1,0-3.79h9.81a1.9,1.9,0,0,1,0,3.79Z"/><path class="cls-5" d="M146.18,57.42h-9.81a1.9,1.9,0,1,1,0-3.79h9.81a1.9,1.9,0,0,1,0,3.79Z"/><path class="cls-5" d="M133,44.94a1.9,1.9,0,0,1-.95-3.54l8.49-4.9a1.9,1.9,0,0,1,1.9,3.28l-8.5,4.9A1.81,1.81,0,0,1,133,44.94Z"/><path class="cls-5" d="M123.89,35.81a1.94,1.94,0,0,1-1-.26,1.9,1.9,0,0,1-.69-2.59l4.9-8.49a1.9,1.9,0,0,1,3.29,1.89l-4.91,8.5A1.89,1.89,0,0,1,123.89,35.81Z"/><path class="cls-6" d="M119.42,74.32H103.33V72.49a12,12,0,0,0-3-7.74,13.34,13.34,0,0,1-3.16-9.83,14.13,14.13,0,0,1,13.52-12.54c8.22-.39,15,5.9,15,13.71a13.29,13.29,0,0,1-3.34,8.81,11.37,11.37,0,0,0-2.86,7.49Z"/><path d="M121.24,76.22H101.43V72.49A10.1,10.1,0,0,0,98.89,66a15.14,15.14,0,0,1-3.6-11.22A15.94,15.94,0,0,1,110.6,40.49,16.55,16.55,0,0,1,122.79,45a15.21,15.21,0,0,1,1,21.17,9.49,9.49,0,0,0-2.4,6.24Zm-16-3.79H117.6v-.11a13.18,13.18,0,0,1,3.33-8.66,11.43,11.43,0,0,0-.77-15.94,12.58,12.58,0,0,0-9.39-3.45c-6.07.29-11.22,5-11.72,10.81a11.47,11.47,0,0,0,2.71,8.44A13.91,13.91,0,0,1,105.22,72.43Z"/><path class="cls-5" d="M119.55,59.31l-.32,0a1.89,1.89,0,0,1-1.55-2.19,5.91,5.91,0,0,0-.52-3.78,3,3,0,0,0-2.07-1.65,1.9,1.9,0,0,1,.65-3.74,6.83,6.83,0,0,1,4.75,3.58,9.72,9.72,0,0,1,.93,6.24A1.9,1.9,0,0,1,119.55,59.31Z"/><path d="M106,82.25a5.69,5.69,0,0,1-3.68-1.31,4.54,4.54,0,0,1,0-7.1,5.65,5.65,0,0,1,3.7-1.35l10.74-.06a5.17,5.17,0,0,1,5.45,4.85h0a4.63,4.63,0,0,1-1.69,3.56,5.69,5.69,0,0,1-3.71,1.35l-10.73.06Zm10.75-6h0L106,76.28a2,2,0,0,0-1.26.43.94.94,0,0,0-.37.67,1,1,0,0,0,.37.66,2,2,0,0,0,1.27.42l10.73-.06a1.94,1.94,0,0,0,1.27-.44.86.86,0,0,0,.36-.65h0C118.41,76.79,117.71,76.22,116.78,76.22Z"/><path d="M106.86,88.23a4.89,4.89,0,0,1,0-9.77l9.09,0a4.91,4.91,0,0,1,3.46,1.42,4.85,4.85,0,0,1,1.45,3.44h0a4.84,4.84,0,0,1-1.41,3.46A4.89,4.89,0,0,1,116,88.19l-9.09,0Zm9.1-6h0l-9.09,0a1.13,1.13,0,0,0-.76.33,1.09,1.09,0,0,0,.77,1.86l9.09,0a1.13,1.13,0,0,0,.77-.33,1.12,1.12,0,0,0,.32-.78h0A1.11,1.11,0,0,0,116,82.2Z"/><path d="M161.26,83.19a1.23,1.23,0,0,1-.27,0A1.88,1.88,0,0,1,159.38,81l2.5-17.53a1.9,1.9,0,0,1,3.76.54l-2.51,17.53A1.89,1.89,0,0,1,161.26,83.19Z"/><circle cx="160.23" cy="88.43" r="2.48"/><path class="cls-5" d="M103.87,198.36A81.73,81.73,0,0,1,29.73,82.3a1.89,1.89,0,1,1,3.44,1.59,77.92,77.92,0,0,0,136,75.36,1.9,1.9,0,0,1,3.18,2.07A81.54,81.54,0,0,1,103.87,198.36Z"/></svg>