<svg id="Layer_1" data-name="Layer 1" xmlns="http://www.w3.org/2000/svg" viewBox="0 0 217.22 217.22"><defs><style>.cls-1,.cls-7{fill:#fff;}.cls-1,.cls-4,.cls-5,.cls-7,.cls-8{stroke:#221f1f;}.cls-1,.cls-3,.cls-4,.cls-6,.cls-7,.cls-8{stroke-linecap:round;}.cls-1,.cls-2{stroke-linejoin:round;}.cls-1,.cls-2,.cls-3,.cls-4,.cls-5,.cls-6,.cls-7{stroke-width:4px;}.cls-2{fill:#dbdcdd;}.cls-2,.cls-6{stroke:#231f20;}.cls-3,.cls-4,.cls-6,.cls-8{fill:none;}.cls-3{stroke:#000;}.cls-3,.cls-4,.cls-5,.cls-6,.cls-7,.cls-8{stroke-miterlimit:10;}.cls-5{fill:#f2f2f2;}.cls-8{stroke-width:4px;}</style></defs><title>design-thinking-quick-start</title><polygon class="cls-1" points="71.02 126.64 71.02 177.28 112.15 194.07 112.15 144.89 71.02 126.64"/><polygon class="cls-1" points="153.28 126.64 153.28 177.28 112.15 194.07 112.15 144.89 153.28 126.64"/><path class="cls-2" d="M113,108.72l36.15,16.07a2,2,0,0,1,0,3.7l-36.15,16a2,2,0,0,1-1.64,0l-36.15-16a2,2,0,0,1,0-3.7l36.15-16.07A2,2,0,0,1,113,108.72Z"/><polygon class="cls-1" points="153.28 126.64 165.22 140.6 125.1 159.03 112.15 144.89 153.28 126.64"/><polygon class="cls-1" points="112.15 144.89 99.2 159.03 59.07 140.6 71.02 126.64 112.15 144.89"/><polygon class="cls-1" points="71.02 126.56 59.08 112.6 99.2 94.18 112.15 108.31 71.02 126.56"/><polygon class="cls-1" points="112.15 108.31 125.1 94.18 165.23 112.6 153.28 126.56 112.15 108.31"/><line class="cls-3" x1="112.15" y1="87.11" x2="112.15" y2="128.55"/><path class="cls-4" d="M72.24,85.45s28.44,6.4,26.65,37"/><path class="cls-4" d="M152.06,85.45s-28.44,6.4-26.65,37"/><path class="cls-5" d="M119.27,71.22H105V66.9A10.7,10.7,0,0,0,102.29,60a11.89,11.89,0,0,1-2.81-8.74,12.74,12.74,0,0,1,25.38,1,11.89,11.89,0,0,1-3,7.84,10.09,10.09,0,0,0-2.55,6.66Z"/><path class="cls-6" d="M115.63,47.76c2.24.39,3.66,3,3.16,5.82"/><path class="cls-7" d="M120.06,71.18a2.5,2.5,0,0,1-.91,1.88,3.45,3.45,0,0,1-2.22.79l-9.54.05a2.93,2.93,0,0,1-3.15-2.63,2.49,2.49,0,0,1,.91-1.89,3.44,3.44,0,0,1,2.21-.79l9.55,0A2.94,2.94,0,0,1,120.06,71.18Z"/><path class="cls-7" d="M118.85,76.51a2.66,2.66,0,0,1-2.65,2.67l-8.08,0a2.66,2.66,0,0,1-2.67-2.64,2.64,2.64,0,0,1,.77-1.88,2.61,2.61,0,0,1,1.87-.79l8.08,0A2.67,2.67,0,0,1,118.85,76.51Z"/><line class="cls-8" x1="112.15" y1="23.16" x2="112.15" y2="30.34"/><line class="cls-8" x1="92.02" y1="31.49" x2="97.11" y2="36.58"/><line class="cls-8" x1="83.69" y1="51.62" x2="90.87" y2="51.62"/><line class="cls-8" x1="133.42" y1="51.62" x2="140.61" y2="51.62"/><line class="cls-8" x1="127.19" y1="36.58" x2="132.28" y2="31.49"/><line class="cls-4" x1="160.4" y1="86.56" x2="159.07" y2="89.48"/><line class="cls-4" x1="166.02" y1="74.15" x2="164.53" y2="77.43"/><line class="cls-4" x1="167.2" y1="83.93" x2="170.34" y2="85.35"/><line class="cls-4" x1="155.01" y1="78.41" x2="157.89" y2="79.71"/><circle cx="57.88" cy="79.22" r="2.2"/><circle cx="57.88" cy="70.43" r="2.2"/><circle cx="57.88" cy="88.02" r="2.2"/><circle cx="51.66" cy="73" r="2.2"/><circle cx="64.1" cy="85.45" r="2.2"/><circle cx="49.08" cy="79.22" r="2.2"/><circle cx="66.68" cy="79.22" r="2.2"/><circle cx="51.66" cy="85.45" r="2.2"/><circle cx="64.1" cy="73" r="2.2"/></svg>