<svg id="Layer_1" data-name="Layer 1" xmlns="http://www.w3.org/2000/svg" viewBox="0 0 217.22 217.22"><defs><style>.cls-1{fill:#dbdcdd;}.cls-2{fill:none;stroke:#231f20;stroke-linecap:round;stroke-linejoin:round;stroke-width:4px;}.cls-3{fill:#231f20;}</style></defs><title>design-thinking-quick-start</title><path class="cls-1" d="M182,103.46c-8.67,9.17-16.95,14.89-26.81,18C152.38,118,143,106,139.3,98.85a117,117,0,0,0,16.59-9.08c6-.14,4.49,6.77,12.23,6C176,95,181.51,97.94,182,103.46Z"/><path class="cls-1" d="M36,103.46c8.67,9.17,17,14.89,26.81,18C65.61,118,75,106,78.69,98.85A117,117,0,0,1,62.1,89.77c-3.06,6.38-8.2.79-12.18,7.32C45.67,104.09,41.67,97.61,36,103.46Z"/><path class="cls-2" d="M36,103.73c8.67,9.17,17,14.89,26.81,18C65.61,118.3,75,106.3,78.69,99.12A117,117,0,0,1,62.1,90"/><path class="cls-2" d="M181.24,103.73c-8.67,9.17-17,14.89-26.81,18-2.79-3.41-12.17-15.41-15.87-22.59A117,117,0,0,0,155.15,90"/><path class="cls-2" d="M64.82,119.22c1,1.33,6,3.5,7.55,3.54a74.3,74.3,0,0,0,10.45-17.28,20.22,20.22,0,0,1-5.49-3.91"/><path class="cls-2" d="M152.44,119.22c-1,1.33-6,3.5-7.56,3.54a74.65,74.65,0,0,1-10.45-17.28,20.48,20.48,0,0,0,5.5-3.91"/><path class="cls-2" d="M95.77,134.27c5.62,5.93,13.65,13.85,17.28,10.86,3.87-3.18-4.53-9.33-8.52-12.8"/><path class="cls-2" d="M101.07,128.49c4.91,5.92,16.4,16.06,20.09,12.49,3.19-3.08-4-8.45-8.44-11.93"/><path class="cls-2" d="M82.24,106.82c2.73,1.06,17.41-4.08,24-2.13"/><path class="cls-2" d="M136,109.21c-8.09-2-13.9-5-22-5.49S96.62,108.8,93.72,112c-1.89,2.08-.77,6.37,5.38,4.11a14.55,14.55,0,0,1,8.86-.38c5.41,1.72,22.55,16.23,19.54,19.34-4.27,4.4-15-6.25-20.88-11"/><path class="cls-2" d="M79,124.55c5.69-3.75,8.12,1.46,4.12,4.64C77,134.11,72.39,128.94,79,124.55Z"/><path class="cls-2" d="M83.16,129.19c7.48-5.19,10.06.86,4.81,4.62C80.86,138.9,78.55,132.39,83.16,129.19Z"/><path class="cls-2" d="M88,133.81c6.79-4.24,9.9.82,4.68,4.63C85.7,143.52,82.45,137.25,88,133.81Z"/><path class="cls-2" d="M92.65,138.44c5.77-4.75,8.76.9,3.48,4.93C92,146.55,88.23,142.08,92.65,138.44Z"/><path class="cls-2" d="M96.13,144.45c6.8,6.31,11.84,1.33,6.6-3.29"/><path class="cls-2" d="M143.43,121.71c-2.49,2.51-6.37,9.55-15.46,11.48"/><path class="cls-2" d="M73.24,121.71a22.71,22.71,0,0,0,3.28,5.17"/><line class="cls-2" x1="107.9" y1="69.79" x2="107.9" y2="88.28"/><line class="cls-2" x1="83.03" y1="78.33" x2="90.6" y2="91.45"/><line class="cls-2" x1="125.2" y1="91.45" x2="132.37" y2="79.04"/><path class="cls-2" d="M156.78,111A56.28,56.28,0,0,0,169.72,103"/><ellipse class="cls-3" cx="60.46" cy="111.53" rx="2.69" ry="2.64"/><path class="cls-2" d="M35.24,118.51a71.42,71.42,0,0,0,8.33,5"/><path class="cls-2" d="M170.12,125.33c1.45-.71,4.9-2.75,6.6-3.89"/></svg>