<svg id="Layer_1" data-name="Layer 1" xmlns="http://www.w3.org/2000/svg" viewBox="0 0 217.22 217.22"><title>ways-to-begin-transformation-journey</title><path d="M53.15,60.76a2,2,0,0,0,1.13,1.4l5.5,2.53V80.84A2,2,0,0,0,61,82.69l23,9.39.13,0,.12,0a1.82,1.82,0,0,0,.52.08,1.88,1.88,0,0,0,.52-.08l.12,0,.12,0,23-9.39a2,2,0,0,0,1.25-1.85V64.69l5.49-2.53A2,2,0,0,0,116,59L110.4,52.5,116,46a2,2,0,0,0-.7-3.15L92.86,32.55a2,2,0,0,0-2.34.47l-5.74,6.27L79,33a2,2,0,0,0-2.33-.47L54.28,42.84a2.07,2.07,0,0,0-1.13,1.41A2,2,0,0,0,53.59,46l5.57,6.51L53.59,59A2,2,0,0,0,53.15,60.76ZM82.78,87.09l-19-7.75v-13L76.7,72.31a2.09,2.09,0,0,0,.85.18A2,2,0,0,0,79,71.83l3.74-4.08Zm3.68-24.87a.32.32,0,0,0,0,.09,1.51,1.51,0,0,1,0,.3A1.67,1.67,0,0,0,86.46,62.22Zm19.32,17.12-19,7.75V67.75l3.74,4.08a2,2,0,0,0,1.49.66,2.08,2.08,0,0,0,.84-.18l12.93-5.94Zm4.88-19.71-1.37.63-4,1.84-13.1,6-4.31-4.7-1.35.6h0l1.35-.6h0l18.86-8.37h0l2.55,3Zm-2.45-8.77h0l.13.06,0,0,.12.1a1.07,1.07,0,0,1,.16.14l.13.12.09.13a1.54,1.54,0,0,0-.17-.19,1.61,1.61,0,0,0-.28-.24,1.64,1.64,0,0,0-.22-.14Zm1,1.22a1.91,1.91,0,0,1,.08.54h0A1.91,1.91,0,0,0,109.21,52.08Zm-17-15,18.47,8.49-3.92,4.58L87.88,41.77ZM102.41,52.6l4.07-1.81h0l-4.07,1.81,0,0h0L92,57.23l-7.44,3.3.81.36-.81-.36L76,56.74l-9.31-4.12h0l0,0-4.07-1.81h0l4.07,1.81,17.88-7.94Zm-44-7,18.48-8.49,4.3,4.7L62.32,50.14Zm1.45,6.52a1.91,1.91,0,0,0-.08.54h0A1.91,1.91,0,0,1,59.85,52.08Zm-.08,6,2.55-3h0l18.86,8.37h0l1.35.6h0l-1.35-.6-4.31,4.7-13.1-6-4-1.84-1.37-.63Z"/><path d="M181.38,125.32l-34.87-20.13a2,2,0,0,0-2,0l-34.87,20.13a2,2,0,0,0-.9,2.34,2.11,2.11,0,0,0-.1.61V165.9a2,2,0,0,0,1,1.73l34.87,20.13s.05,0,.07,0a2.33,2.33,0,0,0,.33.14l.13,0a1.83,1.83,0,0,0,.93,0l.13,0a1.64,1.64,0,0,0,.33-.14l.08,0,34.87-20.13a2,2,0,0,0,1-1.73V128.27a2.12,2.12,0,0,0-.11-.61,2,2,0,0,0,.11-.61A2,2,0,0,0,181.38,125.32Zm-35.87,19.56-13.44-7.76,30.87-17.82,13.44,7.75Zm0-35.65L158.94,117l-30.87,17.82-13.43-7.76Zm-32.87,21.29,13.43,7.76v9.81a2,2,0,0,0,4,0v-7.5l13.44,7.75v34.23l-30.87-17.83Zm34.87,52V148.34l30.87-17.82v34.22Z"/><path d="M128.3,161.46l-7.61-4.4a2,2,0,0,0-2,3.47l7.61,4.39a2,2,0,0,0,2.74-.73A2,2,0,0,0,128.3,161.46Z"/><path d="M66.17,115.81a13.49,13.49,0,0,0-3.92,26.69,13.17,13.17,0,0,0,2,.15,13.49,13.49,0,0,0,2-26.84Zm7.43,14.73a9.49,9.49,0,1,1-15-9,9.49,9.49,0,0,1,15,9Z"/><circle cx="64.21" cy="129.16" r="4.35"/><path d="M88.82,127.24l-2.76-.41a21.54,21.54,0,0,0-1.5-6l2.23-1.67a2,2,0,0,0,.41-2.8l-4.15-5.58a2,2,0,0,0-1.31-.79,2,2,0,0,0-1.49.38L78,112.06a21.82,21.82,0,0,0-5.29-3.16l.4-2.76a2,2,0,0,0-1.69-2.27l-6.88-1a2,2,0,0,0-2.27,1.69l-.41,2.76a21.39,21.39,0,0,0-6,1.51l-1.67-2.24a2,2,0,0,0-2.79-.41l-5.59,4.15a2,2,0,0,0-.41,2.8l1.67,2.24A21,21,0,0,0,44,120.65l-2.76-.41a2,2,0,0,0-2.27,1.69l-1,6.88a2,2,0,0,0,.37,1.49,2,2,0,0,0,1.31.78l2.76.41a21.65,21.65,0,0,0,1.51,6l-2.24,1.67a2,2,0,0,0-.41,2.79l4.15,5.59a2,2,0,0,0,1.32.78,2,2,0,0,0,1.48-.37l2.24-1.67a21.54,21.54,0,0,0,5.29,3.17l-.41,2.75A2,2,0,0,0,57,154.44l6.89,1,.29,0a2,2,0,0,0,1.19-.4,2,2,0,0,0,.79-1.31l.4-2.76a21.71,21.71,0,0,0,6-1.51l1.66,2.24a2,2,0,0,0,2.8.41L82.56,148a2,2,0,0,0,.41-2.8L81.31,143a21.82,21.82,0,0,0,3.16-5.29l2.76.41a2,2,0,0,0,2.27-1.69l1-6.89a2,2,0,0,0-.37-1.48A2,2,0,0,0,88.82,127.24Zm-3,6.59-2.38-.35a2,2,0,0,0-2.18,1.35,17.83,17.83,0,0,1-4,6.66,2,2,0,0,0-.15,2.56L78.57,146l-2.37,1.77-1.44-1.93a2,2,0,0,0-2.5-.59,17.76,17.76,0,0,1-7.52,1.89,2,2,0,0,0-1.92,1.71l-.35,2.38-2.93-.43.35-2.38a2,2,0,0,0-1.35-2.19,17.72,17.72,0,0,1-6.65-4,2,2,0,0,0-2.57-.15l-1.93,1.44-1.77-2.38,1.93-1.43a2,2,0,0,0,.6-2.5,17.62,17.62,0,0,1-1.9-7.52,2,2,0,0,0-1.71-1.93l-2.38-.34.44-2.93,2.37.35a2,2,0,0,0,2.19-1.35,17.83,17.83,0,0,1,4-6.66,2,2,0,0,0,.15-2.57l-1.43-1.92,2.37-1.77,1.43,1.93a2,2,0,0,0,2.51.59,17.68,17.68,0,0,1,7.51-1.89,2,2,0,0,0,1.93-1.71l.35-2.38,2.92.43-.35,2.38a2,2,0,0,0,1.35,2.19,17.68,17.68,0,0,1,6.66,4,2,2,0,0,0,2.57.15L81,114.8l1.76,2.37-1.93,1.44a2,2,0,0,0-.59,2.5,17.92,17.92,0,0,1,1.9,7.52,2,2,0,0,0,1.7,1.92l2.38.35Z"/><path d="M19.51,116.71A37.47,37.47,0,0,1,43.34,88.6l-5.79,6.15a2,2,0,1,0,2.91,2.74L51.18,86.13a2,2,0,0,0,.46-1.95,2,2,0,0,0-1.46-1.37L35,79.21a2,2,0,1,0-.92,3.89l7.69,1.82a41.55,41.55,0,0,0-18.1,64.49A2,2,0,0,0,26.8,147,37.53,37.53,0,0,1,19.51,116.71Z"/><path d="M123.17,56.73a39.69,39.69,0,0,1,47.45,43.52l-3.24-8.77a2,2,0,0,0-3.75,1.39l5.72,15.46a2,2,0,0,0,1.54,1.28l.33,0a2,2,0,0,0,1.54-.72l10.53-12.68a2,2,0,1,0-3.08-2.56l-5.56,6.71a43.72,43.72,0,0,0-52.29-47.57,2,2,0,1,0,.81,3.92Z"/><path d="M38.65,154.82l-2.83-2.77-7.33,7.52,2.83,2.76a5.25,5.25,0,1,0,7.33-7.51ZM37,160.56a3,3,0,0,1-4.44.15l-.93-.91,4.48-4.59.93.91A3,3,0,0,1,37,160.56Z"/><path d="M44.31,163a3.61,3.61,0,0,0-5.3,1.32c-1.22,2.08-.64,4.08,1.49,5.32,1.65,1,3.4.87,4.31-.24l-1.94-1.14a1.31,1.31,0,0,1-1.5-.1,1.51,1.51,0,0,1-.71-2.14l4.61,2.7a7.43,7.43,0,0,0,.55-.83C46.86,166.14,46.25,164.15,44.31,163Zm-.22,3.38-2.71-1.59a1.47,1.47,0,0,1,2.15-.48A1.38,1.38,0,0,1,44.09,166.39Z"/><polygon points="52.85 167 49.84 170.76 49.79 165.94 47.4 165.11 47.98 172.96 49.94 173.64 55.27 167.83 52.85 167"/><path d="M59.05,168.09a3.61,3.61,0,0,0-4.38,3.27c-.32,2.4,1,4,3.43,4.34,1.91.25,3.48-.52,3.89-1.9l-2.23-.3a1.31,1.31,0,0,1-1.43.49,1.51,1.51,0,0,1-1.48-1.7l5.29.71a9.65,9.65,0,0,0,.2-1A3.45,3.45,0,0,0,59.05,168.09Zm-2,2.79a1.47,1.47,0,0,1,1.79-1.28,1.38,1.38,0,0,1,1.32,1.69Z"/><rect x="64.07" y="165.35" width="2.3" height="10.5" transform="translate(-4.23 1.68) rotate(-1.43)"/><path d="M71.49,167.75a3.83,3.83,0,1,0,4.64,3A3.71,3.71,0,0,0,71.49,167.75Zm1.06,5.61a1.9,1.9,0,1,1,1.34-2.18A1.71,1.71,0,0,1,72.55,173.36Z"/><path d="M80.82,164.77a2.66,2.66,0,0,0-1.67,2.07l-.41-1-2.11.92,4.1,9.37,2.11-.92-1.61-3.68a2.59,2.59,0,0,0,2.59.19c1.82-.8,2.48-2.77,1.58-4.85S82.63,164,80.82,164.77Zm1.63,5.52a1.74,1.74,0,0,1-2.36-1,1.73,1.73,0,1,1,2.36,1Z"/><path d="M116.59,191.14a5.73,5.73,0,1,0-8,.39A5.43,5.43,0,0,0,116.59,191.14Zm-2-1.71a3.14,3.14,0,1,1-.13-4.6A3.09,3.09,0,0,1,114.64,189.43Z"/><path d="M123.33,192.28a2.74,2.74,0,0,0-2.69-.06l.49-.91-2.07-1.11-4.84,9,2.06,1.11,1.91-3.54a2.63,2.63,0,0,0,1.49,2.18c1.79,1,3.77.28,4.85-1.71S125.11,193.24,123.33,192.28Zm-.91,3.83a1.76,1.76,0,1,1-.64-2.49A1.75,1.75,0,0,1,122.42,196.11Z"/><path d="M130.85,195.33a3.64,3.64,0,0,0-4.95,2.44c-.73,2.31.31,4.13,2.71,4.89,1.87.59,3.58.11,4.23-1.18l-2.19-.69a1.34,1.34,0,0,1-1.52.22,1.52,1.52,0,0,1-1.2-1.93l5.2,1.64a8.54,8.54,0,0,0,.36-.94C134.11,197.83,133,196,130.85,195.33Zm.56,3.35-3-1a1.48,1.48,0,0,1,2-.94A1.39,1.39,0,0,1,131.41,198.68Z"/><path d="M137.8,198.72l.24-1.5-2.32-.36L134.6,204l2.31.37.43-2.75c.27-1.72,1.17-2.26,2.3-2.09a7,7,0,0,1,.69.16l.33-2.11a2.28,2.28,0,0,0-.59-.15A2.06,2.06,0,0,0,137.8,198.72Z"/><path d="M146.9,198.83a2.56,2.56,0,0,0-2.31-1.24,3.52,3.52,0,0,0-3.52,3.81c0,2.17,1.26,3.81,3.47,3.81a2.65,2.65,0,0,0,2.34-1.21v1h2.33l0-7.23H146.9Zm-1.69,4.48a1.74,1.74,0,0,1-1.75-1.91,1.77,1.77,0,1,1,1.75,1.91Z"/><path d="M155.75,202.31c-.57.09-1,0-1.2-1.05l-.37-2.37,1.65-.26-.27-1.79-1.65.25-.33-2.12-2.32.36.33,2.12-1.15.18.28,1.79,1.15-.18.44,2.85c.37,2.38,1.9,2.39,3,2.22a8.07,8.07,0,0,0,1.53-.36l-.28-1.8A6.26,6.26,0,0,1,155.75,202.31Z"/><path d="M163.08,200c-.06.49-.43.84-1.12,1.05a1.52,1.52,0,0,1-2.09-.91l5.21-1.6a8.27,8.27,0,0,0-.24-1c-.6-1.95-2.51-2.84-4.7-2.16a3.63,3.63,0,0,0-2.68,4.82c.71,2.31,2.61,3.22,5,2.48,1.87-.58,3-2,2.8-3.38Zm-2.51-3.14a1.4,1.4,0,0,1,1.94,1l-3.06.94A1.49,1.49,0,0,1,160.57,196.84Z"/><path d="M176.61,189.62l-3.3,2,1,1.57.64-.39a1.61,1.61,0,0,1-.45,2.38,1.44,1.44,0,0,1-2.08-.41,1.38,1.38,0,0,1,.57-2.09l.26-.16-1-1.59-.3.19a1.23,1.23,0,0,1-1.91-.4,1.25,1.25,0,0,1,.52-1.78c.89-.54,1.57-.13,2,.65l2.15-1.32c-1.05-1.72-2.82-2.25-5.13-.83-1.86,1.13-2.71,3-1.74,4.55a2.36,2.36,0,0,0,2.77,1,2.7,2.7,0,0,0-.39,3.28c1,1.69,3.18,1.77,5.17.54s2.73-3.32,1.58-5.31l.56-.34Z"/><path d="M183.82,182l-1.73.8c-1,.47-1.58.52-2,.11s-.41-1.06.15-1.65a1.35,1.35,0,0,1,2.12,0l1.72-1.78c-1.45-1.41-3.48-1.19-5.12.5s-1.76,3.6-.43,4.88a2.91,2.91,0,0,0,3.57.43l1.87-.88c.94-.43,1.41-.45,1.88,0s.46,1.18-.17,1.84a1.64,1.64,0,0,1-2.52,0L181.44,188c1.69,1.63,3.78,1.46,5.61-.43,1.65-1.71,1.81-3.72.4-5.08A3,3,0,0,0,183.82,182Z"/><path d="M191.67,176.91a1.31,1.31,0,0,1,0,1.76,1.91,1.91,0,0,1-3.14-2.11,1.3,1.3,0,0,1,1.67-.65l1.3-1.94c-1.59-.85-3.36-.3-4.58,1.53a3.83,3.83,0,1,0,6.36,4.27c1.23-1.83,1.07-3.67-.28-4.8Z"/><path d="M192,166.29l1,.41a2.53,2.53,0,0,0-2,1.64,3.51,3.51,0,0,0,2.12,4.73c2,.85,4,.33,4.87-1.69a2.69,2.69,0,0,0-.19-2.63l.94.4.91-2.14-6.64-2.86Zm3.36,1.35a1.72,1.72,0,0,1,1,2.37,1.9,1.9,0,0,1-3.48-1.5A1.72,1.72,0,0,1,195.34,167.64Z"/><rect x="194.39" y="156.5" width="2.34" height="10.5" transform="translate(-12.26 307.42) rotate(-74.62)"/><path d="M200.47,151.91l-.32,2.27a1.34,1.34,0,0,1,.48,1.46,1.52,1.52,0,0,1-1.71,1.51l.75-5.4c-.41-.1-.6-.14-1-.2-2-.27-3.64,1.08-3.95,3.35a3.64,3.64,0,0,0,3.24,4.47c2.39.33,4-1,4.36-3.49C202.61,153.94,201.85,152.33,200.47,151.91Zm-3,5.05a1.49,1.49,0,0,1-1.26-1.83,1.39,1.39,0,0,1,1.7-1.34Z"/><polygon points="78.28 22.8 77.76 20.7 73.97 21.64 71.98 13.54 69.62 14.13 72.14 24.32 78.28 22.8"/><path d="M79.82,14.81a1.41,1.41,0,1,0-.28-2.8,1.41,1.41,0,1,0,.28,2.8Z"/><rect x="79.08" y="15.43" width="2.3" height="7.23" transform="matrix(1, -0.1, 0.1, 1, -1.5, 8.09)"/><polygon points="87.43 22.53 90.9 15.46 88.35 15.34 86.52 19.8 85.12 15.19 82.59 15.07 85.37 22.44 87.43 22.53"/><path d="M93.9,23.79c1.87.46,3.52-.15,4.07-1.49l-2.19-.52a1.32,1.32,0,0,1-1.47.34A1.5,1.5,0,0,1,93,20.28l5.19,1.25c.14-.4.2-.59.3-1a3.46,3.46,0,0,0-2.87-4.24,3.61,3.61,0,0,0-4.69,2.81C90.37,21.48,91.51,23.22,93.9,23.79Zm1.36-6a1.39,1.39,0,0,1,1.13,1.82l-3-.74A1.48,1.48,0,0,1,95.26,17.81Z"/></svg>