<svg id="Layer_1" data-name="Layer 1" xmlns="http://www.w3.org/2000/svg" viewBox="0 0 217.22 217.22"><title>ways-to-begin-transformation-journey</title><path d="M81.56,42.81v-9.5a2,2,0,0,0-4,0v9.5a2,2,0,0,0,4,0Z"/><path d="M67.47,48.05a2,2,0,0,0,1.73-3l-4.75-8.23a2,2,0,1,0-3.46,2l4.75,8.23A2,2,0,0,0,67.47,48.05Z"/><path d="M49.39,51.88l8.23,4.76a2,2,0,0,0,2-3.47l-8.23-4.75a2,2,0,1,0-2,3.46Z"/><path d="M98.77,55.9a2,2,0,0,0,2.73.74l8.23-4.76a2,2,0,1,0-2-3.46L99.5,53.17A2,2,0,0,0,98.77,55.9Z"/><path d="M97.4,36.09a2,2,0,0,0-2.73.73l-4.75,8.23a2,2,0,0,0,.73,2.73,2,2,0,0,0,1,.27,2,2,0,0,0,1.73-1l4.76-8.23A2,2,0,0,0,97.4,36.09Z"/><path d="M91.66,77.41a15,15,0,0,0,3.74-10,15.88,15.88,0,0,0-31.63-1.23,15,15,0,0,0,3.55,11,9.67,9.67,0,0,1,2.4,6.18v2.21a4.65,4.65,0,0,0-.78,2.51v.24a5.17,5.17,0,0,0,1.82,3.42,4.85,4.85,0,0,0,4.38,7h0l8.82,0a4.93,4.93,0,0,0,4.86-4.92h0a4.84,4.84,0,0,0-.52-2.12l.1-.07a4.67,4.67,0,0,0,1.74-3.57v-.23a5.19,5.19,0,0,0-.87-2.35l.09-2.19A9,9,0,0,1,91.66,77.41ZM67.75,66.65a11.88,11.88,0,0,1,23.66.89,11,11,0,0,1-2.74,7.22,13,13,0,0,0-3.28,8.45H73.72a13.65,13.65,0,0,0-3.38-8.58A10.9,10.9,0,0,1,67.75,66.65ZM86.17,88.16a.77.77,0,0,1-.27.44,1.67,1.67,0,0,1-1.14.4l-10.4,0h-.15a1.19,1.19,0,0,1-1.26-1,.74.74,0,0,1,.27-.44,1.73,1.73,0,0,1,1.12-.4h0l10.4-.06h.18A1.2,1.2,0,0,1,86.17,88.16ZM84,94.81l-8.81,0h0a.9.9,0,1,1,0-1.79L84,93h0a.9.9,0,0,1,0,1.8Z"/><path d="M82,63.41c1.71.3,2.81,2.62,2.38,5.07A2,2,0,0,0,86,70.8a2,2,0,0,0,.34,0,2,2,0,0,0,2-1.66c.81-4.66-1.71-9-5.63-9.7A2,2,0,1,0,82,63.41Z"/><path d="M72.46,165.15c13.7-5.14,21.34-17.46,22.63-26.73A16.16,16.16,0,0,0,91,125.08a11.36,11.36,0,0,0-9.61-3.49c-4.22.5-7.91,3.31-10.49,8-2.57-4.66-6.26-7.49-10.5-8a11.41,11.41,0,0,0-9.61,3.49,16.16,16.16,0,0,0-4.12,13.34c1.29,9.27,8.93,21.59,22.63,26.73a4.53,4.53,0,0,0,3.19,0ZM50.6,137.86a12.07,12.07,0,0,1,3-10A7.47,7.47,0,0,1,59,125.51a7.13,7.13,0,0,1,.91,0c3.22.38,6,2.78,8,6.93a3.31,3.31,0,0,0,6,0c2-4.15,4.75-6.56,8-6.94a7.4,7.4,0,0,1,6.28,2.32,12.1,12.1,0,0,1,3,10c-1.14,8.14-7.9,19-20.07,23.54a.53.53,0,0,1-.39,0C58.5,156.84,51.74,146,50.6,137.86Z"/><path d="M68.93,150.51a26.06,26.06,0,0,1-6.18-5.67,2,2,0,0,0-3.15,2.47,29.88,29.88,0,0,0,7.14,6.55,2,2,0,0,0,1.09.32,2,2,0,0,0,1.1-3.67Z"/><path d="M42.22,162.24,40,159l-8.74,5.82,2.19,3.29a5.25,5.25,0,1,0,8.74-5.82Zm-2.79,5.29a3,3,0,0,1-4.37-.78l-.73-1.09,5.35-3.56.72,1.09A3,3,0,0,1,39.43,167.53Z"/><path d="M46.09,171.4a3.61,3.61,0,0,0-5.46.24c-1.62,1.8-1.44,3.87.39,5.52,1.43,1.28,3.16,1.53,4.28.62l-1.67-1.51a1.3,1.3,0,0,1-1.46-.4,1.49,1.49,0,0,1-.27-2.23l4,3.57a8.09,8.09,0,0,0,.72-.71C48,175,47.76,172.91,46.09,171.4Zm-.9,3.27-2.33-2.09a1.46,1.46,0,0,1,2.19-.05A1.38,1.38,0,0,1,45.19,174.67Z"/><path d="M50.78,178.16a.66.66,0,0,1-.21-.86c.18-.31.58-.35,1-.11s.72.75.46,1.19l2,1.13c.68-1.18.17-2.5-1.66-3.56-1.65-1-3.15-.73-3.83.44A2.09,2.09,0,0,0,49,179.1l1.3,1.28a.58.58,0,0,1,.15.79.73.73,0,0,1-1.07.16c-.61-.35-.84-.9-.59-1.33l-2-1.14c-.68,1.18-.07,2.73,1.76,3.79s3.24.72,4-.57a2.11,2.11,0,0,0-.58-2.65Z"/><path d="M59.51,177.26a1.4,1.4,0,0,0-.81-1.84,1.41,1.41,0,1,0,.81,1.84Z"/><rect x="52.5" y="180.86" width="7.23" height="2.3" transform="translate(-133.83 168.02) rotate(-68.65)"/><path d="M65,181.8a2.41,2.41,0,0,0-2-1.64,3.45,3.45,0,0,0-4.12,3,3.36,3.36,0,0,0,2.65,4.28,2.54,2.54,0,0,0,2.45-.7l-.19.94a1.51,1.51,0,0,1-2,1.39c-.91-.18-1.33-.62-1.33-1.2l-2.29-.45a2.61,2.61,0,0,0,.87,2.22,5.08,5.08,0,0,0,2.45,1.08,4.43,4.43,0,0,0,2.66-.13,3.52,3.52,0,0,0,2-2.75l1.31-6.6-2.26-.45Zm-.38,2.5a1.74,1.74,0,0,1-2.08,1.52,1.9,1.9,0,1,1,2.08-1.52Z"/><path d="M73.9,180.93a2.46,2.46,0,0,0-2.28,1.35l-.05-1.05-2.29.11.34,7.22,2.29-.11-.17-3.77c-.06-1.11.4-1.73,1.31-1.78s1.3.5,1.36,1.71l.17,3.72,2.31-.11-.21-4.47C76.59,181.79,75.66,180.84,73.9,180.93Z"/><polygon points="88.17 176.17 87.39 174.16 79.75 177.1 80.53 179.12 83.22 178.08 86.22 185.87 88.47 185 85.47 177.21 88.17 176.17"/><path d="M93.08,174a2.46,2.46,0,0,0-1.24,2.35l-2.43-3.58L87.51,174l5.9,8.69,1.9-1.29-2.12-3.13c-.62-.91-.56-1.68.19-2.2s1.37-.25,2.05.75l2.09,3.08,1.91-1.3-2.51-3.7C95.82,173.31,94.53,173,93.08,174Z"/><path d="M95,168.09a1.4,1.4,0,1,0,2,0A1.39,1.39,0,0,0,95,168.09Z"/><rect x="98.78" y="169.55" width="2.3" height="7.23" transform="translate(-92.34 118.33) rotate(-44.09)"/><path d="M102.14,164.71a2.43,2.43,0,0,0-.37,2.62l-.85-.62-1.35,1.86,5.84,4.25,1.35-1.86-3.05-2.22c-.9-.65-1.11-1.39-.57-2.13s1.2-.71,2.18,0l3,2.18,1.36-1.86-3.62-2.63C104.49,163.15,103.17,163.29,102.14,164.71Z"/><polygon points="107.52 154.38 106.47 156.87 108.34 160.21 102.54 157.77 101.65 159.89 111.33 163.96 112.22 161.84 109.33 160.63 113.11 159.72 114.2 157.14 109.55 158.36 107.52 154.38"/><rect x="110.3" y="149.24" width="2.29" height="7.23" transform="translate(-62.72 226.66) rotate(-76.87)"/><path d="M107.3,151.87a1.4,1.4,0,1,0-1.68,1.06A1.38,1.38,0,0,0,107.3,151.87Z"/><path d="M108.71,144.54a2.45,2.45,0,0,0,1.11,2.4l-1-.06-.13,2.29,7.22.4.12-2.29-3.77-.21c-1.11-.06-1.68-.57-1.63-1.49s.62-1.24,1.84-1.17l3.71.2.12-2.3-4.46-.25C109.84,142,108.81,142.79,108.71,144.54Z"/><path d="M117.47,132.41a3.55,3.55,0,0,0-3.28-.81l-6.62,1.24.42,2.25,1-.19a2.45,2.45,0,0,0-.8,2.43,3.46,3.46,0,0,0,4.3,2.72,3.37,3.37,0,0,0,3-4.05,2.57,2.57,0,0,0-1.56-2l.94-.17a1.51,1.51,0,0,1,2,1.36c.17.91-.08,1.46-.62,1.67l.43,2.3a2.6,2.6,0,0,0,1.74-1.64,5,5,0,0,0,.09-2.67A4.5,4.5,0,0,0,117.47,132.41Zm-5.36,5.32a1.73,1.73,0,1,1,1.54-2A1.73,1.73,0,0,1,112.11,137.73Z"/><rect x="57" y="16.67" width="2.43" height="10.5" transform="translate(-3.69 28.06) rotate(-26.3)"/><path d="M65.82,24.63a2.6,2.6,0,0,0,1.83-1.85l.3,1,2.18-.69L67,13.05l-2.19.7,1.11,3.52h0l.18.59a2.45,2.45,0,0,0-2.53-.49C61.55,18,60.77,20,61.43,22S63.76,25.29,65.82,24.63ZM64.73,19A1.7,1.7,0,0,1,67,20.28a1.73,1.73,0,1,1-3.29,1A1.72,1.72,0,0,1,64.73,19Z"/><path d="M74.91,22.67c1.9-.21,3.24-1.35,3.31-2.79L76,20.13c-.14.47-.57.75-1.27.82a1.5,1.5,0,0,1-1.85-1.28l5.31-.6a8,8,0,0,0,0-1,3.45,3.45,0,0,0-4.14-3,3.6,3.6,0,0,0-3.45,4.23C70.8,21.69,72.46,22.94,74.91,22.67Zm-.78-6.09a1.38,1.38,0,0,1,1.69,1.32l-3.11.35A1.46,1.46,0,0,1,74.13,16.58Z"/><path d="M82.45,22.47a2.6,2.6,0,0,0,2.39-1l-.09,1,2.27.2.63-7.2-2.27-.2-.09,1a2.47,2.47,0,0,0-2.15-1.42c-2.09-.18-3.56,1.35-3.75,3.5S80.3,22.28,82.45,22.47Zm-.73-3.89a1.73,1.73,0,1,1,3.44.3,1.71,1.71,0,0,1-1.89,1.75A1.73,1.73,0,0,1,81.72,18.58Z"/><path d="M89.58,20.74c-.61,2.34.77,2.94,1.81,3.22a9,9,0,0,0,1.51.26l.46-1.77a5.84,5.84,0,0,1-.78-.15c-.55-.15-.93-.42-.66-1.45l.6-2.32,1.58.41.46-1.75L93,16.77l.54-2.07-2.22-.58-.54,2.08-1.11-.29-.45,1.76,1.1.28Z"/><path d="M96.83,26.05c1.76.77,3.48.46,4.26-.75L99,24.39a1.3,1.3,0,0,1-1.51.08,1.5,1.5,0,0,1-1-2l4.89,2.14a8.4,8.4,0,0,0,.46-.89A3.46,3.46,0,0,0,99.84,19a3.61,3.61,0,0,0-5.11,1.94C93.76,23.15,94.58,25.06,96.83,26.05Zm2.38-5.65a1.38,1.38,0,0,1,.8,2l-2.87-1.25A1.46,1.46,0,0,1,99.21,20.4Z"/><path d="M139.81,192.73a3.64,3.64,0,0,0-1-5.25l-3.69-2.5-5.89,8.7,2,1.35,1.63-2.4,1.69,1.14A3.65,3.65,0,0,0,139.81,192.73Zm-2-1.38a1.69,1.69,0,0,1-2.4.57L134,191l2-3,1.38.93A1.69,1.69,0,0,1,137.78,191.35Z"/><path d="M145.05,194.16a2,2,0,0,0-2.48.71l.61-1.39-2.1-.91-2.88,6.63,2.09.91,1.12-2.56c.69-1.59,1.67-1.9,2.7-1.45a5,5,0,0,1,.61.31l.85-1.95A2.17,2.17,0,0,0,145.05,194.16Z"/><path d="M150,195.5a3.84,3.84,0,1,0,3,4.65A3.71,3.71,0,0,0,150,195.5Zm.79,4.12a1.73,1.73,0,1,1-1.24-2.23A1.7,1.7,0,0,1,150.74,199.62Z"/><path d="M157.91,194.66l-2.29-.14-.12,2.14-1.14-.07-.1,1.81,1.13.07-.17,2.88c-.15,2.41,1.32,2.74,2.39,2.8a8.81,8.81,0,0,0,1.53,0l.11-1.83a5.19,5.19,0,0,1-.79,0c-.57,0-1-.22-.93-1.29l.14-2.39,1.63.1.11-1.82-1.63-.09Z"/><path d="M164.21,196.35a3.84,3.84,0,1,0,4.4,3.35A3.7,3.7,0,0,0,164.21,196.35Zm.64,5.68a1.9,1.9,0,1,1,1.5-2.08A1.7,1.7,0,0,1,164.85,202Z"/><path d="M174.53,199.85c-.55.16-1,.12-1.31-.9l-.68-2.3,1.56-.46-.52-1.74-1.56.46-.61-2.06-2.19.65.61,2.06-1.09.32.51,1.74,1.09-.32.82,2.76c.69,2.32,2.17,2.13,3.21,1.82a8.82,8.82,0,0,0,1.42-.55l-.51-1.75A6.38,6.38,0,0,1,174.53,199.85Z"/><path d="M181.31,190.81l-2,1,1.61,3.2c.5,1,.41,1.84-.42,2.26s-1.42,0-1.84-.82L176.89,193l-2,1,1.89,3.75c.81,1.61,2.1,2.33,3.75,1.5a2.41,2.41,0,0,0,1.5-2.1l.5,1c.51,1,.24,1.69-.51,2.07s-1.24.22-1.56-.31l-2.06,1a2.6,2.6,0,0,0,1.66,1.3,4,4,0,0,0,2.72-.53,3.77,3.77,0,0,0,2-1.94,3.41,3.41,0,0,0-.25-2.8Z"/><path d="M186.28,186.76a2.65,2.65,0,0,0-1,2.44l-.65-.81-1.78,1.45,6.48,7.93,1.77-1.45-2.54-3.11a2.59,2.59,0,0,0,2.54-.51c1.54-1.26,1.64-3.34.21-5.09S187.81,185.51,186.28,186.76Zm3.06,4.88a1.75,1.75,0,0,1-2.55-.38,1.73,1.73,0,1,1,2.55.38Z"/><path d="M198.14,181.51l-1.4,1.76a1.3,1.3,0,0,1-.31,1.47,1.51,1.51,0,0,1-2.22.39l3.33-4.16a7.47,7.47,0,0,0-.74-.67,3.44,3.44,0,0,0-5.05.78,3.6,3.6,0,0,0,.55,5.43c1.88,1.51,3.94,1.22,5.47-.69C199,184.32,199.12,182.58,198.14,181.51Zm-5.21.54a1.38,1.38,0,0,1,2.13-.25l-2,2.44A1.47,1.47,0,0,1,192.93,182.05Z"/><path d="M160.43,186.61s.06,0,.08,0l26.15-15.1a2,2,0,0,0,1-1.73V141.53a1.76,1.76,0,0,0-.06-.46,1.74,1.74,0,0,0,.06-.45,2,2,0,0,0-1-1.73l-26.15-15.1a2,2,0,0,0-2,0l-26.15,15.1a2,2,0,0,0-1,1.73,1.74,1.74,0,0,0,.06.45,1.76,1.76,0,0,0-.06.46v28.22a2,2,0,0,0,1,1.73l26.15,15.1s.05,0,.08,0a1.64,1.64,0,0,0,.33.14l.12,0a1.87,1.87,0,0,0,.94,0l.12,0A1.64,1.64,0,0,0,160.43,186.61Zm1.08-5.23V156.87l22.15-12.79V168.6Zm-2-28-9.08-5.24,22.16-12.79,9.07,5.24Zm0-25.58,9.08,5.24-22.16,12.79-9.07-5.24Zm-24.15,16.25,9.07,5.24v7.07a2,2,0,0,0,4,0v-4.76l9.08,5.24v24.51L135.36,168.6Z"/><path d="M146.86,166l-5.71-3.3a2,2,0,0,0-2,3.47l5.71,3.29a2,2,0,0,0,2-3.46Z"/><path d="M23.12,121.68A37.47,37.47,0,0,1,47,93.57l-5.79,6.15a2,2,0,1,0,2.91,2.74L54.79,91.09a2,2,0,0,0-1-3.32l-15.2-3.6a2,2,0,1,0-.92,3.9l7.69,1.82a41.55,41.55,0,0,0-18.1,64.49,2,2,0,0,0,1.58.77,2,2,0,0,0,1.23-.43,2,2,0,0,0,.34-2.81A37.52,37.52,0,0,1,23.12,121.68Z"/><path d="M158.34,108l-4-8.43a2,2,0,0,0-3.61,1.72l7.11,14.87a2,2,0,0,0,1.65,1.13h.16a2,2,0,0,0,1.65-.87l9.31-13.6a2,2,0,0,0-3.3-2.26l-4.92,7.19a43.7,43.7,0,0,0-56.43-42.57A2,2,0,0,0,107.09,69a39.7,39.7,0,0,1,51.25,39Z"/></svg>