<svg id="Layer_1" data-name="Layer 1" xmlns="http://www.w3.org/2000/svg" viewBox="0 0 217.22 217.22"><title>ways-to-begin-transformation-journey</title><path d="M70.58,155.33A16.68,16.68,0,1,0,53.9,138.66,16.69,16.69,0,0,0,70.58,155.33Zm0-29.35A12.68,12.68,0,1,1,57.9,138.66,12.7,12.7,0,0,1,70.58,126Z"/><circle cx="66.3" cy="134.97" r="2.63"/><path d="M74.86,137.59A2.63,2.63,0,1,0,72.23,135,2.62,2.62,0,0,0,74.86,137.59Z"/><path d="M64.89,141.24a2,2,0,0,0,0,2.83,8,8,0,0,0,11.38,0,2,2,0,0,0-2.82-2.83,4.07,4.07,0,0,1-5.74,0A2,2,0,0,0,64.89,141.24Z"/><path d="M84.88,154.82a20.26,20.26,0,0,1-28.6,0,2,2,0,0,0-2.83,2.83,24.26,24.26,0,0,0,34.26,0,2,2,0,0,0-2.83-2.83Z"/><path d="M189.14,143.36a44.79,44.79,0,0,0-40.93-44.57,44.75,44.75,0,1,0-81.45,0,44.74,44.74,0,1,0,40.73,69.83,44.73,44.73,0,0,0,81.65-25.26ZM107.49,39.54a40.72,40.72,0,0,1,36.36,59.09,44.7,44.7,0,0,0-36.36,19.47A44.73,44.73,0,0,0,71.12,98.63a40.72,40.72,0,0,1,36.37-59.09Zm34,63.19a40.76,40.76,0,0,1-31.06,18.18A40.79,40.79,0,0,1,141.47,102.73Zm-36.91,18.18a40.73,40.73,0,0,1-31-18.18A40.75,40.75,0,0,1,104.56,120.91Zm-34,63.19a40.74,40.74,0,0,1-1.82-81.44,44.82,44.82,0,0,0,34.91,22.2,44.61,44.61,0,0,0,1.5,40A40.75,40.75,0,0,1,70.58,184.1Zm36.91-58a40.72,40.72,0,0,1,0,34.48,40.62,40.62,0,0,1,0-34.48Zm36.9,58a40.73,40.73,0,0,1-34.58-19.24,44.65,44.65,0,0,0,1.49-40,44.81,44.81,0,0,0,34.91-22.2,40.74,40.74,0,0,1-1.82,81.44Z"/><path d="M144.39,155.33a16.68,16.68,0,1,0-16.68-16.67A16.69,16.69,0,0,0,144.39,155.33Zm0-29.35a12.68,12.68,0,1,1-12.68,12.68A12.7,12.7,0,0,1,144.39,126Z"/><path d="M140.11,137.59a2.63,2.63,0,1,0-2.63-2.62A2.62,2.62,0,0,0,140.11,137.59Z"/><path d="M148.67,137.59a2.63,2.63,0,1,0-2.62-2.62A2.62,2.62,0,0,0,148.67,137.59Z"/><path d="M138.7,141.24a2,2,0,0,0,0,2.83,8.05,8.05,0,0,0,11.39,0,2,2,0,1,0-2.83-2.83,4.06,4.06,0,0,1-5.73,0A2,2,0,0,0,138.7,141.24Z"/><path d="M158.69,154.82a20.23,20.23,0,0,1-28.6,0,2,2,0,0,0-2.82,2.83,24.23,24.23,0,0,0,34.25,0,2,2,0,0,0-2.83-2.83Z"/><path d="M107.49,92.26A16.68,16.68,0,1,0,90.81,75.58,16.69,16.69,0,0,0,107.49,92.26Zm0-29.36A12.68,12.68,0,1,1,94.81,75.58,12.69,12.69,0,0,1,107.49,62.9Z"/><path d="M103.21,74.52a2.63,2.63,0,1,0-2.63-2.63A2.62,2.62,0,0,0,103.21,74.52Z"/><path d="M111.77,74.52a2.63,2.63,0,1,0-2.63-2.63A2.62,2.62,0,0,0,111.77,74.52Z"/><path d="M101.79,78.17a2,2,0,0,0,0,2.83,8.08,8.08,0,0,0,11.39,0,2,2,0,0,0-2.83-2.83,4.06,4.06,0,0,1-5.73,0A2,2,0,0,0,101.79,78.17Z"/><path d="M107.49,101.65a24.14,24.14,0,0,0,17.12-7.08,2,2,0,0,0-2.83-2.83,20.23,20.23,0,0,1-28.59,0,2,2,0,0,0-2.83,2.83A24.14,24.14,0,0,0,107.49,101.65Z"/><path d="M87,26.54l2,.07c1,.05,1.44.25,1.65.86s-.1,1.26-1,1.55a1.61,1.61,0,0,1-2.21-1.15l-2.3.81c.78,2.22,2.69,3,5.13,2.16,2.19-.76,3.22-2.47,2.57-4.33a2.94,2.94,0,0,0-3-2.09l-1.87-.08c-1.12-.05-1.62-.26-1.81-.81s.1-1.13.85-1.39a1.33,1.33,0,0,1,1.87.95l2.3-.8c-.67-1.92-2.55-2.64-4.73-1.88S83.43,22.8,84,24.54A2.9,2.9,0,0,0,87,26.54Z"/><path d="M97.69,28.77a2.58,2.58,0,0,0,2-1.59l.07.38h0l.61,3.57,2.26-.38-1.73-10.09-2.25.39.18,1a2.48,2.48,0,0,0-2.45-.83c-2.07.36-3.1,2.21-2.74,4.34S95.56,29.13,97.69,28.77ZM97.37,23a1.7,1.7,0,0,1,2,1.57A1.71,1.71,0,0,1,98,26.78a1.74,1.74,0,0,1-2-1.59A1.71,1.71,0,0,1,97.37,23Z"/><path d="M106.22,27.88a2.39,2.39,0,0,0,2.23-1.27v1l2.28,0-.11-7.23-2.28,0,.06,3.88c0,1-.39,1.61-1.37,1.63s-1.21-.52-1.22-1.51l-.07-4-2.32,0L103.5,25C103.53,26.84,104.48,27.91,106.22,27.88Z"/><path d="M115.07,28.4a2.6,2.6,0,0,0,2.46-.83l-.16,1,2.25.37,1.15-7.14-2.25-.36-.16,1a2.47,2.47,0,0,0-2-1.57c-2.07-.34-3.65,1.08-4,3.21S112.94,28.05,115.07,28.4Zm-.44-3.93A1.73,1.73,0,1,1,118,25a1.71,1.71,0,0,1-2,1.61A1.74,1.74,0,0,1,114.63,24.47Z"/><path d="M123.72,30.41a2.61,2.61,0,0,0,2.57-.4L126,31l2.15.74,3.41-9.93L129.35,21l-1.2,3.49h0l-.2.58a2.46,2.46,0,0,0-1.75-1.89c-2-.69-3.78.44-4.48,2.49S121.68,29.71,123.72,30.41Zm.23-3.95a1.72,1.72,0,0,1,2.25-1.22,1.7,1.7,0,0,1,1,2.34A1.71,1.71,0,0,1,125,28.83,1.75,1.75,0,0,1,124,26.46Z"/><path d="M29.08,178.33a3.65,3.65,0,0,0,.92-5.27l-2.58-3.64-8.57,6.07,1.41,2,2.37-1.68,1.18,1.66A3.66,3.66,0,0,0,29.08,178.33ZM25.21,176l-1-1.36,3-2.1,1,1.36a1.82,1.82,0,0,1-3,2.1Z"/><path d="M32.86,181.06a3.84,3.84,0,1,0,.22,5.53A3.71,3.71,0,0,0,32.86,181.06ZM31.44,185a1.73,1.73,0,1,1,.08-2.56A1.71,1.71,0,0,1,31.44,185Z"/><path d="M40.56,188.24h0l-.35.5a2.46,2.46,0,0,0-1.14-2.31c-1.71-1.22-3.75-.65-5,1.11s-1.19,3.83.57,5.08a2.6,2.6,0,0,0,2.57.34l-.59.83,1.86,1.32,6.08-8.56-1.87-1.33Zm-1.76,2.67a1.73,1.73,0,1,1-.31-2.54A1.72,1.72,0,0,1,38.8,190.91Z"/><path d="M173.15,190.15l-1.85.26c-1.11.15-1.64,0-1.93-.47s-.11-1.13.58-1.53a1.35,1.35,0,0,1,2,.6l2.11-1.2c-1-1.76-3-2.14-5-1s-2.63,2.92-1.72,4.52a2.91,2.91,0,0,0,3.27,1.44l2-.3c1-.14,1.45,0,1.77.54s.13,1.26-.65,1.71a1.62,1.62,0,0,1-2.38-.73l-2.12,1.2c1.17,2,3.19,2.48,5.44,1.2,2-1.15,2.71-3,1.74-4.72A2.93,2.93,0,0,0,173.15,190.15Z"/><polygon points="179.64 179.3 182.47 186.74 175.45 182.99 173.34 184.85 180.27 192.73 182.02 191.2 177.49 186.05 183.81 189.62 185.16 188.43 182.41 181.78 186.9 186.9 188.65 185.36 181.72 177.48 179.64 179.3"/><polygon points="190.71 179.63 188.88 178.23 191.3 175.06 189.79 173.91 187.37 177.07 185.47 175.62 187.9 172.46 186.35 171.27 182.45 176.37 190.78 182.75 194.68 177.65 193.13 176.47 190.71 179.63"/><path d="M197.16,168.86a2.11,2.11,0,0,0-2.64.63l-1.24,1.27a.68.68,0,0,1-.86.22c-.31-.17-.36-.58-.12-1s.73-.73,1.17-.48l1.1-2c-1.19-.66-2.51-.12-3.53,1.73-.92,1.66-.67,3.16.51,3.81a2.09,2.09,0,0,0,2.7-.57l1.25-1.33a.6.6,0,0,1,.8-.16c.36.2.42.62.18,1.06-.34.61-.89.86-1.32.62l-1.11,2c1.2.67,2.73,0,3.76-1.82S198.46,169.58,197.16,168.86Z"/></svg>