<?xml version="1.0" encoding="utf-8"?>
<!-- Generator: Adobe Illustrator 23.1.1, SVG Export Plug-In . SVG Version: 6.00 Build 0)  -->
<svg version="1.1" id="Layer_1" xmlns="http://www.w3.org/2000/svg" xmlns:xlink="http://www.w3.org/1999/xlink" x="0px" y="0px"
	 viewBox="0 0 400 68.3" style="enable-background:new 0 0 400 68.3;" xml:space="preserve">
<title>LOGO_DXC-Technology-Black</title>
<path d="M31.7,34.2c0.1-12.2-9.7-22-21.9-22.1c-0.1,0-0.1,0-0.2,0H0v44.2h9.6c12.2,0,22-9.8,22.1-21.9
	C31.7,34.2,31.7,34.2,31.7,34.2 M48.9,41.3l-15.6,27h31.2L48.9,41.3z M48.9,27L64.5,0H33.3L48.9,27z M66.1,34.2
	c0,12.2,9.8,22,21.9,22.1c0,0,0.1,0,0.1,0h9.6V12h-9.6C76,12,66.1,21.8,66.1,34C66.1,34,66.1,34.1,66.1,34.2 M391.7,49.4
	c-1.5,3.8-3.4,5.6-7.7,5.6c-0.8,0-1.7-0.1-2.5-0.2v-4.8c0.6,0.1,1.3,0.2,1.9,0.2c1.4,0,2.4-0.6,3.1-2.3l0.5-1.1l-7.8-18.2h6.2
	l4.5,11.2l4.2-11.2h5.9L391.7,49.4 M367.2,42.3c-2.5-0.2-4.5-2.4-4.3-4.9c0.2-2.3,2-4.2,4.3-4.3c2.5,0.2,4.5,2.4,4.3,4.9
	C371.3,40.4,369.5,42.2,367.2,42.3 M377.3,47.1V28.6h-5.6v2.7c-1.2-2-3.4-3.2-5.7-3.1c-5.3,0-8.8,4.1-8.8,9.5s3.6,9.2,8.9,9.2
	c2.2,0.1,4.3-1,5.6-2.8v3.1c0,2.6-1.4,4-4.1,4c-2.4,0-3.8-1.1-4-2.8h-5.7c0.3,4,3.5,6.9,9.5,6.9C374.1,55.4,377.4,52.4,377.3,47.1
	 M345.3,42.3c-2.5-0.2-4.5-2.4-4.3-4.9c0.2-2.3,2-4.2,4.3-4.3c2.5,0.2,4.5,2.4,4.3,4.9C349.4,40.4,347.6,42.2,345.3,42.3
	 M345.3,47.3c6.3,0,10.1-4.4,10.1-9.5s-3.8-9.6-10.1-9.6s-10,4.4-10,9.6S339,47.3,345.3,47.3 M326.8,46.8h5.7V20.5h-5.7V46.8z
	 M313.9,42.3c-2.5-0.2-4.5-2.4-4.3-4.9c0.2-2.3,2-4.2,4.3-4.3c2.5,0.2,4.5,2.4,4.3,4.9C318.1,40.4,316.2,42.2,313.9,42.3
	 M313.9,47.3c6.3,0,10.1-4.4,10.1-9.5s-3.8-9.6-10.1-9.6s-10,4.4-10,9.6S307.7,47.3,313.9,47.3 M283.1,46.8h5.7v-9.5
	c0-2.6,1.2-4.2,3.5-4.2s3.2,1.5,3.2,3.7v10h5.7V36.3c0-5.1-2.2-8.2-6.8-8.2c-2.3-0.1-4.5,1.1-5.7,3.1v-2.6h-5.6L283.1,46.8z
	 M261.3,46.8h5.7v-9.5c0-2.6,1.2-4.2,3.5-4.2s3.2,1.5,3.2,3.7v10h5.7V36.3c0-5.1-2.2-8.2-6.8-8.2c-2.3-0.1-4.5,1.1-5.6,3.1V20.5
	h-5.7L261.3,46.8z M258.7,35.6c-0.7-4.2-3.8-7.5-9.3-7.5c-6.1,0-9.9,4.4-9.9,9.6s3.7,9.5,9.9,9.5c5.5,0,8.6-3.3,9.3-7.5H253
	c-0.4,1.6-1.9,2.7-3.5,2.6c-2.5,0-4.1-2.1-4.1-4.7s1.6-4.7,4.1-4.7c1.6,0,3.1,1,3.5,2.6L258.7,35.6z M228.3,32.2
	c2-0.1,3.7,1.4,3.8,3.4c0,0,0,0.1,0,0.1h-7.7C224.5,33.7,226.2,32.1,228.3,32.2C228.3,32.2,228.3,32.2,228.3,32.2 M237.3,41.2h-5.4
	c-0.7,1.2-2,2-3.4,1.9c-2.6,0-3.9-1.7-4-3.9h13.2c0.1-0.7,0.1-1.4,0.1-2.1c0-4.8-3.3-8.9-9.3-8.9c-6.2,0-9.5,4.3-9.5,9.6
	s3.4,9.5,9.6,9.5C233.5,47.2,236.4,44.6,237.3,41.2 M204.1,28.6v4.5h2.8v7.4c0,5,2.4,6.6,6.7,6.6c1.2,0,2.4-0.1,3.6-0.3v-4.5
	c-0.8,0.1-1.5,0.2-2.3,0.2c-1.5,0-2.3-0.5-2.3-2.3v-6.9h4.1v-4.5h-4.1v-5.4H207v5.4L204.1,28.6z M196.3,43.4c0,2,1.6,3.6,3.7,3.6
	s3.6-1.6,3.6-3.7c0-2-1.6-3.6-3.7-3.6c0,0,0,0,0,0C198,39.8,196.3,41.4,196.3,43.4C196.3,43.4,196.3,43.4,196.3,43.4 M182.3,47.2
	c7.3,0,11.2-4.3,12-9.9h-6c-0.6,2.8-3,4.7-5.9,4.6c-4.5,0-6.9-3.6-6.9-7.8s2.4-7.8,6.9-7.8c2.8-0.1,5.3,1.9,5.8,4.6h6
	c-0.8-5.5-4.7-9.9-12-9.9c-8.1,0-12.8,6.2-12.8,13.1S174.2,47.2,182.3,47.2 M162.7,46.8h6.9l-8.2-12.7l8.1-12.5h-6.8l-5,8.3
	l-5.1-8.3h-6.9l8.1,12.5l-8.2,12.7h6.8l5.2-8.4L162.7,46.8z M132.6,26.6c4.1,0,7.5,3.4,7.5,7.5s-3.4,7.5-7.5,7.5h-3.1v-15H132.6z
	 M123.6,46.8h9.2c8.4,0,13.1-6.2,13.1-12.6s-4.7-12.6-13.1-12.6h-9.2V46.8z"/>
</svg>
